<?xml version="1.0" encoding="UTF-8"?><svg id="Layer_2" xmlns="http://www.w3.org/2000/svg" viewBox="0 0 480 320"><defs><style>.cls-1,.cls-2{fill:#9575cd;}.cls-2{font-family:Chillax-Light, Chillax;font-size:27.96px;font-weight:300;}</style></defs><path class="cls-1" d="M65.97,177.38c-4.77,0-8.64-3.87-8.64-8.64v-63.57c0-8.33,6.09-13.17,12.92-13.17,5.47,0,9.82,1.99,12.55,6.59l33.06,56.67v-52.94c0-4.74,3.84-8.58,8.58-8.58h0c4.74,0,8.58,3.84,8.58,8.58v63.63c0,8.33-6.09,13.05-12.68,13.05-5.34,0-9.94-1.86-12.68-6.46l-33.06-57.04v53.25c0,4.77-3.87,8.64-8.64,8.64h0Z"/><circle class="cls-1" cx="197.45" cy="131.54" r="9.65"/><path class="cls-1" d="M255.48,137.03c-.31-.92-1.17-2.57-3.5-3.29-3.35-1.02-10.75-4.37-15.11-6.4-3.69-20.41-20.9-35.09-42.88-35.09-24.73,0-43.5,18.77-43.5,43.37s18.77,43.37,43.5,43.37c19.76,0,35.79-11.91,41.43-29.32,17.88-5.24,18.91-7.18,19.73-8.74.64-1.22.76-2.61.32-3.91ZM218.85,135.62c0,14.79-10.94,26.22-24.86,26.22s-24.86-11.43-24.86-26.22,10.94-26.22,24.86-26.22,24.86,11.43,24.86,26.22Z"/><path class="cls-1" d="M280.5,163.71l-17.97-58.48c-1.75-5.71,2.52-11.49,8.49-11.49h0c3.93,0,7.39,2.58,8.51,6.35l17.37,58.4c.5,1.62,1.37,2.49,2.61,2.49s1.99-.87,2.49-2.49l17.26-58.39c1.11-3.77,4.58-6.36,8.51-6.36h0c5.97,0,10.24,5.78,8.48,11.48l-17.97,58.49c-3.23,10.31-9.2,15.41-18.89,15.41s-15.66-5.1-18.89-15.41Z"/><path class="cls-1" d="M353.16,140.22v-37.41c0-5.01,4.06-9.07,9.07-9.07h0c5.01,0,9.07,4.06,9.07,9.07v37.04c0,14.54,5.97,21.62,18.27,21.62s18.27-7.08,18.27-21.62v-37.04c0-5.01,4.06-9.07,9.07-9.07h0c5.01,0,9.07,4.06,9.07,9.07v37.41c0,24.11-11.56,38.53-36.41,38.53s-36.41-14.42-36.41-38.53Z"/><text class="cls-2" transform="translate(60.27 221.26)"><tspan x="0" y="0" xml:space="preserve">SIN LIMITES, SIN ANUNCIOS   </tspan></text><path class="cls-1" d="M389.83,152.39c-2.89,0-5.23-2.34-5.23-5.23v-42.86c0-2.89,2.34-5.23,5.23-5.23s5.23,2.34,5.23,5.23v42.86c0,2.89-2.34,5.23-5.23,5.23Z"/></svg>